# xmcd CD database file
#
# Track frame offsets:
#	150
#	9572
#	18277
#	27412
#	37990
#	47975
#	57035
#	65217
#	73057
#	83467
#	92670
#	103415
#	115342
#	122740
#	129082
#	136807
#	145382
#	156885
#	164655
#	173160
#	182240
#	191782
#	200095
#	209065
#	217740
#
# Disc length: 2992 seconds
#
# Revision: 0
# Processed by: cddbd v1.5PL3 Copyright (c) Steve Scherf et al.
# Submitted via: CDex 1.50
#
DISCID=740bae19
DTITLE=Jimmy Bryant - Frettin' Fingers
DYEAR=2003
DGENRE=Country
TTITLE0=Fender Bender
TTITLE1=Model 400 Buckboard
TTITLE2=Laughing Guitar
TTITLE3=Joy Ride
TTITLE4=Corn Ball
TTITLE5=In The Heart Of A Clown
TTITLE6=Tabasco Road
TTITLE7=Come Alive Polka
TTITLE8=Lazy Guitar
TTITLE9=Shinbone
TTITLE10=Trevor's Theme
TTITLE11=Liverpool
TTITLE12=Boogie For Guitar
TTITLE13=Steel Guitar Rag
TTITLE14=12TH Street Rag
TTITLE15=Little Rock Getaway
TTITLE16=Caravan
TTITLE17=Down Yonder
TTITLE18=Georgia Boogie
TTITLE19=Tico Tico
TTITLE20=Indiana (Back Home Again In Indiana)
TTITLE21=Ten Wheels
TTITLE22=Stumbling
TTITLE23=Voxwagon
TTITLE24=Sugar Foot Rag
EXTD=YEAR: 2003
EXTT0=
EXTT1=
EXTT2=
EXTT3=
EXTT4=
EXTT5=
EXTT6=
EXTT7=
EXTT8=
EXTT9=
EXTT10=
EXTT11=
EXTT12=
EXTT13=
EXTT14=
EXTT15=
EXTT16=
EXTT17=
EXTT18=
EXTT19=
EXTT20=
EXTT21=
EXTT22=
EXTT23=
EXTT24=
PLAYORDER=
